<svg xmlns="http://www.w3.org/2000/svg" viewBox="0 0 1920 800" preserveAspectRatio="xMidYMid slice">
  <defs>
    <linearGradient id="reviewGrad" x1="0%" y1="0%" x2="100%" y2="100%">
      <stop offset="0%" style="stop-color:#0a0a0a"/>
      <stop offset="100%" style="stop-color:#050505"/>
    </linearGradient>
  </defs>
  <rect width="100%" height="100%" fill="url(#reviewGrad)"/>
  <!-- Stars pattern -->
  <g fill="#1a1a1a" opacity="0.4">
    <polygon points="100,50 110,80 140,80 115,100 125,130 100,110 75,130 85,100 60,80 90,80"/>
    <polygon points="300,150 308,172 332,172 312,188 320,210 300,194 280,210 288,188 268,172 292,172"/>
    <polygon points="500,80 507,97 526,97 511,109 517,126 500,114 483,126 489,109 474,97 493,97"/>
    <polygon points="700,200 710,230 740,230 715,250 725,280 700,260 675,280 685,250 660,230 690,230"/>
    <polygon points="1200,100 1208,122 1232,122 1212,138 1220,160 1200,144 1180,160 1188,138 1168,122 1192,122"/>
    <polygon points="1400,180 1410,210 1440,210 1415,230 1425,260 1400,240 1375,260 1385,230 1360,210 1390,210"/>
    <polygon points="1600,60 1607,77 1626,77 1611,89 1617,106 1600,94 1583,106 1589,89 1574,77 1593,77"/>
    <polygon points="1800,220 1810,250 1840,250 1815,270 1825,300 1800,280 1775,300 1785,270 1760,250 1790,250"/>
  </g>
</svg>
